HIERARCHY
ROOT Hips
{
	OFFSET 0.000000 0.000000 0.000000
	CHANNELS 6 Xposition Yposition Zposition Xrotation Yrotation Zrotation
	JOINT LeftUpLeg_virtual
	{
		OFFSET 0.000000 0.000000 0.000000
		CHANNELS 3 Xrotation Yrotation Zrotation
		JOINT LeftUpLeg
		{
			OFFSET 13.026900 -6.336304 -1.092800
			CHANNELS 3 Xrotation Yrotation Zrotation
			JOINT LeftLeg
			{
				OFFSET 0.524474 -46.096886 9.782700
				CHANNELS 3 Xrotation Yrotation Zrotation
				JOINT LeftFoot
				{
					OFFSET -0.524474 -53.427422 -12.948200
					CHANNELS 3 Xrotation Yrotation Zrotation
					JOINT LeftToeBase
					{
						OFFSET 0.192200 -14.009700 16.364100
						CHANNELS 3 Xrotation Yrotation Zrotation
						JOINT LeftToe_End
						{
							OFFSET -1.784700 -0.561700 9.474800
							CHANNELS 3 Xrotation Yrotation Zrotation
							End Site
							{
								OFFSET 0 0 0
							}
						}
					}
				}
			}
		}
	}
	JOINT RightUpLeg_virtual
	{
		OFFSET 0.000000 0.000000 0.000000
		CHANNELS 3 Xrotation Yrotation Zrotation
		JOINT RightUpLeg
		{
			OFFSET -12.883000 -6.336304 -1.092800
			CHANNELS 3 Xrotation Yrotation Zrotation
			JOINT RightLeg
			{
				OFFSET -0.524587 -46.096825 9.782800
				CHANNELS 3 Xrotation Yrotation Zrotation
				JOINT RightFoot
				{
					OFFSET 0.524587 -53.427383 -12.948300
					CHANNELS 3 Xrotation Yrotation Zrotation
					JOINT RightToeBase
					{
						OFFSET -0.192200 -14.009700 16.364100
						CHANNELS 3 Xrotation Yrotation Zrotation
						JOINT RightToe_End
						{
							OFFSET 1.784700 -0.561700 9.474800
							CHANNELS 3 Xrotation Yrotation Zrotation
							End Site
							{
								OFFSET 0 0 0
							}
						}
					}
				}
			}
		}
	}
	JOINT Spine_virtual
	{
		OFFSET 0.000000 0.000000 0.000000
		CHANNELS 3 Xrotation Yrotation Zrotation
		JOINT Spine
		{
			OFFSET 0.072000 7.257294 -0.789700
			CHANNELS 3 Xrotation Yrotation Zrotation
			JOINT Spine1
			{
				OFFSET 0.000000 12.508769 -0.658067
				CHANNELS 3 Xrotation Yrotation Zrotation
				JOINT Spine1_split
				{
					OFFSET 0.000000 12.508769 -0.658067
					CHANNELS 3 Xrotation Yrotation Zrotation
					JOINT Spine2
					{
						OFFSET 0.000000 12.508769 -0.658067
						CHANNELS 3 Xrotation Yrotation Zrotation
						JOINT Neck_virtual
						{
							OFFSET 0.000000 0.000000 0.000000
							CHANNELS 3 Xrotation Yrotation Zrotation
							JOINT Neck
							{
								OFFSET 0.000000 14.033295 7.520400
								CHANNELS 3 Xrotation Yrotation Zrotation
								JOINT Head
								{
									OFFSET 0.000000 8.198502 5.703100
									CHANNELS 3 Xrotation Yrotation Zrotation
									JOINT HeadTop_End
									{
										OFFSET 0.000000 17.760803 13.332701
										CHANNELS 3 Xrotation Yrotation Zrotation
										End Site
										{
											OFFSET 0 0 0
										}
									}
								}
							}
						}
						JOINT LeftShoulder_virtual
						{
							OFFSET 0.000000 0.000000 0.000000
							CHANNELS 3 Xrotation Yrotation Zrotation
							JOINT LeftShoulder
							{
								OFFSET 6.292450 5.785301 -0.669000
								CHANNELS 3 Xrotation Yrotation Zrotation
								JOINT LeftShoulder_split
								{
									OFFSET 6.292450 5.785301 -0.669000
									CHANNELS 3 Xrotation Yrotation Zrotation
									JOINT LeftArm
									{
										OFFSET 13.907140 -6.093903 1.965100
										CHANNELS 3 Xrotation Yrotation Zrotation
										JOINT LeftForeArm
										{
											OFFSET 34.140198 0.000000 0.000000
											CHANNELS 3 Xrotation Yrotation Zrotation
											JOINT LeftHand
											{
												OFFSET 40.960209 0.000000 0.000000
												CHANNELS 3 Xrotation Yrotation Zrotation
												End Site
												{
													OFFSET 0 0 0
												}
											}
										}
									}
								}
							}
						}
						JOINT RightShoulder_virtual
						{
							OFFSET 0.000000 0.000000 0.000000
							CHANNELS 3 Xrotation Yrotation Zrotation
							JOINT RightShoulder
							{
								OFFSET -6.292450 5.785301 -0.669000
								CHANNELS 3 Xrotation Yrotation Zrotation
								JOINT RightShoulder_split
								{
									OFFSET -6.292450 5.785301 -0.669000
									CHANNELS 3 Xrotation Yrotation Zrotation
									JOINT RightArm
									{
										OFFSET -13.907140 -6.093903 1.965100
										CHANNELS 3 Xrotation Yrotation Zrotation
										JOINT RightForeArm
										{
											OFFSET -34.140198 0.000000 0.000000
											CHANNELS 3 Xrotation Yrotation Zrotation
											JOINT RightHand
											{
												OFFSET -40.960209 0.000000 0.000000
												CHANNELS 3 Xrotation Yrotation Zrotation
												End Site
												{
													OFFSET 0 0 0
												}
											}
										}
									}
								}
							}
						}
					}
				}
			}
		}
	}
}
MOTION
Frames: 7
Frame Time: 0.03333333
0.356327 118.051880 -0.823818 0.000000 0.000000 0.000000 2.912920 -29.006540 0.903449 -15.842168 18.227369 11.840216 13.988033 12.901097 -0.955968 -0.258361 -3.828297 -5.797969 -0.131854 -0.014308 -0.311713 0.000000 0.000000 0.000000 2.912920 -29.006540 0.903449 -7.710467 -1.705098 -8.156860 10.301064 9.438677 0.799110 -5.653112 -0.758397 6.749844 -1.288156 -0.019884 0.149893 0.000000 0.000000 0.000000 2.912920 -29.006540 0.903449 7.837680 -0.306450 -2.400360 1.099253 -0.880569 2.383463 0.000000 0.000000 0.000000 0.000000 0.000000 0.000000 1.108680 -0.590453 2.446366 -3.842070 18.019057 -6.496396 -6.332478 13.021552 0.301482 0.000000 0.000000 0.000000 1.108680 -0.590453 2.446366 -0.057390 -8.759444 -0.061011 0.000000 0.000000 0.000000 -55.249755 0.330148 -41.449915 11.586052 -65.829527 13.007257 0.000000 0.000000 0.000000 1.108680 -0.590453 2.446366 4.849284 7.760152 5.560449 0.000000 0.000000 0.000000 -0.933508 -2.176878 61.845649 11.299284 18.943446 -3.987510 0.000000 0.000000 0.000000 
0.558820 117.854248 -1.104710 0.000000 0.000000 0.000000 3.001906 -28.730607 0.852399 -16.596006 18.173562 12.132223 14.719956 13.965502 -0.881770 -0.404979 -5.263255 -5.896082 -0.131842 -0.014304 -0.311712 0.000000 0.000000 0.000000 3.001906 -28.730607 0.852399 -8.241836 -1.761602 -8.093312 10.939064 9.017783 0.680405 -5.860514 -0.739022 6.812951 -1.322981 -0.015841 -0.028570 0.000000 0.000000 0.000000 3.001906 -28.730607 0.852399 7.767015 -0.296038 -2.398241 1.051471 -0.856363 2.346642 0.000000 0.000000 0.000000 0.000000 0.000000 0.000000 1.060734 -0.578900 2.409569 -4.035127 18.103343 -6.236031 -6.261313 13.166568 0.315301 0.000000 0.000000 0.000000 1.060734 -0.578900 2.409569 -0.095205 -7.833561 -0.261094 0.000000 0.000000 0.000000 -55.289063 1.044018 -40.597545 10.451435 -65.790417 11.849222 0.000000 0.000000 0.000000 1.060734 -0.578900 2.409569 4.852107 7.875472 5.834439 0.000000 0.000000 0.000000 -0.731461 -2.101491 61.529985 11.542495 18.958858 -4.028565 0.000000 0.000000 0.000000 
0.817693 117.617851 -1.319004 0.000000 0.000000 0.000000 3.073104 -28.284840 0.717524 -17.517028 18.212734 12.341160 15.550671 13.163043 -0.935945 -0.597351 -5.092705 -5.621598 -0.131855 -0.014308 -0.311714 0.000000 0.000000 0.000000 3.073104 -28.284840 0.717524 -8.703333 -2.007339 -7.955560 11.591307 8.425448 0.427270 -6.129546 -0.682423 7.045678 -1.406018 -0.015864 -0.454341 0.000000 0.000000 0.000000 3.073104 -28.284840 0.717524 7.671096 -0.238574 -2.298083 1.024543 -0.785730 2.316041 0.000000 0.000000 0.000000 0.000000 0.000000 0.000000 1.032499 -0.513465 2.374546 -4.234202 18.653812 -6.061272 -6.174073 13.712727 0.322350 0.000000 0.000000 0.000000 1.032499 -0.513465 2.374546 -0.121054 -6.796877 -0.488154 0.000000 0.000000 0.000000 -55.142959 2.029456 -39.651731 9.135454 -66.083822 10.497951 0.000000 0.000000 0.000000 1.032499 -0.513465 2.374546 4.835495 8.084639 5.913532 0.000000 0.000000 0.000000 -0.348451 -2.133821 61.427122 11.793706 19.189413 -4.098389 0.000000 0.000000 0.000000 
1.093546 117.393417 -1.488991 0.000000 0.000000 0.000000 3.198674 -27.777534 0.589816 -18.458719 18.296381 12.605474 16.377168 13.218378 -0.912481 -0.819710 -5.895546 -5.471414 -0.131843 -0.014308 -0.311713 0.000000 0.000000 0.000000 3.198674 -27.777534 0.589816 -9.132152 -2.315504 -7.805816 12.146421 7.776320 0.130636 -6.374178 -0.612638 7.361229 -1.505122 -0.015838 -0.962536 0.000000 0.000000 0.000000 3.198674 -27.777534 0.589816 7.559740 -0.159610 -2.149384 0.981920 -0.683669 2.257197 0.000000 0.000000 0.000000 0.000000 0.000000 0.000000 0.988250 -0.419402 2.309415 -4.421085 20.029627 -5.825419 -6.024798 15.108064 -0.003514 0.000000 0.000000 0.000000 0.988250 -0.419402 2.309415 -0.137808 -5.281952 -0.732833 0.000000 0.000000 0.000000 -55.099747 2.847243 -38.843170 8.518015 -66.232215 9.832286 0.000000 0.000000 0.000000 0.988250 -0.419402 2.309415 4.823350 8.325184 6.084429 0.000000 0.000000 0.000000 0.027501 -1.981529 61.197368 11.923162 19.091919 -4.012291 0.000000 0.000000 0.000000 
1.428046 117.148712 -1.513931 0.000000 0.000000 0.000000 3.313047 -27.156598 0.548438 -19.317218 18.435312 12.684920 17.227701 13.216357 -0.885887 -1.134381 -6.750387 -5.275452 -0.131851 -0.014309 -0.311713 0.000000 0.000000 0.000000 3.313047 -27.156598 0.548438 -9.492687 -2.546793 -7.860422 12.744731 7.073326 -0.128247 -6.709720 -0.583594 7.758975 -1.588151 -0.015832 -1.388315 0.000000 0.000000 0.000000 3.313047 -27.156598 0.548438 7.386457 -0.017513 -2.070311 0.964205 -0.486275 2.231983 0.000000 0.000000 0.000000 0.000000 0.000000 0.000000 0.968521 -0.229712 2.272019 -3.954008 22.754348 -5.876480 -6.536039 17.880605 -1.009382 0.000000 0.000000 0.000000 0.968521 -0.229712 2.272019 -0.097633 -3.831647 -0.993992 0.000000 0.000000 0.000000 -55.094966 4.077402 -37.778504 9.204558 -66.373210 10.434397 0.000000 0.000000 0.000000 0.968521 -0.229712 2.272019 4.816400 8.501683 6.229786 0.000000 0.000000 0.000000 0.563640 -1.726072 61.017352 12.505172 19.261133 -4.145871 0.000000 0.000000 0.000000 
1.862023 116.935478 -1.359589 0.000000 0.000000 0.000000 3.405377 -26.476055 0.545232 -19.988576 18.605336 12.567797 17.987445 13.191873 -0.851839 -1.515408 -7.595530 -5.012476 -0.131844 -0.014308 -0.311713 0.000000 0.000000 0.000000 3.405377 -26.476055 0.545232 -9.655598 -2.604577 -8.123771 13.160105 6.402205 -0.264212 -7.014651 -0.630544 8.209385 -1.633817 -0.015550 -1.554049 0.000000 0.000000 0.000000 3.405377 -26.476055 0.545232 7.191840 0.184746 -1.917976 0.959411 -0.205206 2.170834 0.000000 0.000000 0.000000 0.000000 0.000000 0.000000 0.961656 0.039521 2.194106 -3.267896 27.049245 -6.285114 -6.758910 22.038437 -2.081235 0.000000 0.000000 0.000000 0.961656 0.039521 2.194106 -0.049787 -2.182471 -1.260930 0.000000 0.000000 0.000000 -54.297798 5.181453 -35.736079 6.714727 -67.007175 7.904397 0.000000 0.000000 0.000000 0.961656 0.039521 2.194106 4.802324 8.780391 6.545480 0.000000 0.000000 0.000000 0.892048 -1.910158 60.669688 12.855437 19.314523 -4.255106 0.000000 0.000000 0.000000 
2.366893 116.728683 -1.052750 0.000000 0.000000 0.000000 3.550175 -25.601600 0.634537 -20.584187 18.759507 12.232073 18.688313 13.068889 -0.822748 -1.941103 -8.439364 -4.667432 -0.131851 -0.014307 -0.311713 0.000000 0.000000 0.000000 3.550175 -25.601600 0.634537 -9.889825 -2.835701 -8.495950 13.720229 5.528519 -0.572998 -7.215932 -0.633320 8.859145 -2.068500 -0.003637 -1.856720 0.000000 0.000000 0.000000 3.550175 -25.601600 0.634537 6.922500 0.416243 -1.779940 0.952021 0.138006 2.082963 0.000000 0.000000 0.000000 0.000000 0.000000 0.000000 0.953011 0.366754 2.086822 -2.099967 31.694629 -7.091461 -6.992626 26.565987 -3.468477 0.000000 0.000000 0.000000 0.953011 0.366754 2.086822 0.036097 -0.371903 -1.530128 0.000000 0.000000 0.000000 -53.465488 6.524826 -33.706765 4.056326 -67.682817 5.227755 0.000000 0.000000 0.000000 0.953011 0.366754 2.086822 4.778744 9.110158 6.822624 0.000000 0.000000 0.000000 1.126971 -2.293092 60.418262 12.886389 18.974066 -4.221326 0.000000 0.000000 0.000000 
